<?xml version="1.0" encoding="UTF-8" standalone="no"?>
<!-- Created with Inkscape (http://www.inkscape.org/) -->

<svg
   xmlns:dc="http://purl.org/dc/elements/1.1/"
   xmlns:cc="http://creativecommons.org/ns#"
   xmlns:rdf="http://www.w3.org/1999/02/22-rdf-syntax-ns#"
   xmlns:svg="http://www.w3.org/2000/svg"
   xmlns="http://www.w3.org/2000/svg"
   xmlns:sodipodi="http://sodipodi.sourceforge.net/DTD/sodipodi-0.dtd"
   xmlns:inkscape="http://www.inkscape.org/namespaces/inkscape"
   width="210"
   height="210"
   id="svg2"
   version="1.1"
   inkscape:version="0.48.4 r9939"
   sodipodi:docname="control.svg"
   inkscape:export-filename="C:\work\robot\server\public\left-forward.png"
   inkscape:export-xdpi="180"
   inkscape:export-ydpi="180"
   enable-background="new">
  <defs
     id="defs4">
    <filter
       inkscape:collect="always"
       id="filter3878">
      <feBlend
         inkscape:collect="always"
         mode="screen"
         in2="BackgroundImage"
         id="feBlend3880" />
    </filter>
  </defs>
  <sodipodi:namedview
     id="base"
     pagecolor="#ffffff"
     bordercolor="#666666"
     borderopacity="1.0"
     inkscape:pageopacity="0.0"
     inkscape:pageshadow="2"
     inkscape:zoom="2.8"
     inkscape:cx="148.90039"
     inkscape:cy="96.300158"
     inkscape:document-units="px"
     inkscape:current-layer="layer11"
     showgrid="true"
     inkscape:snap-bbox="true"
     showguides="true"
     inkscape:guide-bbox="true"
     inkscape:snap-nodes="true"
     inkscape:object-nodes="true"
     inkscape:window-width="1680"
     inkscape:window-height="966"
     inkscape:window-x="1672"
     inkscape:window-y="-8"
     inkscape:window-maximized="1"
     inkscape:bbox-nodes="false">
    <inkscape:grid
       type="xygrid"
       id="grid2985"
       empspacing="5"
       visible="true"
       enabled="true"
       snapvisiblegridlinesonly="true"
       spacingx="2px"
       spacingy="2px" />
    <sodipodi:guide
       orientation="0,1"
       position="130,130"
       id="guide3005" />
    <sodipodi:guide
       orientation="0,1"
       position="130,80"
       id="guide3007" />
    <sodipodi:guide
       orientation="1,0"
       position="130,100"
       id="guide3011" />
    <sodipodi:guide
       orientation="1,0"
       position="80,110"
       id="guide3013" />
    <sodipodi:guide
       orientation="0,1"
       position="45.456865,187.13076"
       id="guide3037" />
    <sodipodi:guide
       orientation="1,0"
       position="20,168"
       id="guide3043" />
    <sodipodi:guide
       orientation="1,0"
       position="190,158"
       id="guide3045" />
    <sodipodi:guide
       orientation="0,1"
       position="198,24"
       id="guide3049" />
  </sodipodi:namedview>
  <metadata
     id="metadata7">
    <rdf:RDF>
      <cc:Work
         rdf:about="">
        <dc:format>image/svg+xml</dc:format>
        <dc:type
           rdf:resource="http://purl.org/dc/dcmitype/StillImage" />
        <dc:title></dc:title>
      </cc:Work>
    </rdf:RDF>
  </metadata>
  <g
     inkscape:label="centre-stop"
     inkscape:groupmode="layer"
     id="layer1"
     transform="translate(0,-842.36218)"
     style="display:none">
    <path
       style="fill:none;stroke:#000000;stroke-width:1px;stroke-linecap:butt;stroke-linejoin:miter;stroke-opacity:1"
       d="m 95,902.86218 20,0 0,-30 10,0 -20,-20 -20,20 10,0 z"
       id="path3015"
       inkscape:connector-curvature="0" />
    <path
       inkscape:connector-curvature="0"
       id="path3017"
       d="m 115,991.86216 -20,0 0,30.00004 -10,0 20,20 20,-20 -10,0 z"
       style="fill:none;stroke:#000000;stroke-width:1px;stroke-linecap:butt;stroke-linejoin:miter;stroke-opacity:1" />
    <path
       style="fill:none;stroke:#000000;stroke-width:1px;stroke-linecap:butt;stroke-linejoin:miter;stroke-opacity:1"
       d="M 80,80 40,0"
       id="path3019"
       inkscape:connector-curvature="0"
       transform="translate(0,842.36218)" />
    <path
       style="fill:none;stroke:#000000;stroke-width:1px;stroke-linecap:butt;stroke-linejoin:miter;stroke-opacity:1"
       d="M 170,0 130,80 210,70"
       id="path3021"
       inkscape:connector-curvature="0"
       transform="translate(0,842.36218)" />
    <path
       style="fill:none;stroke:#000000;stroke-width:1px;stroke-linecap:butt;stroke-linejoin:miter;stroke-opacity:1"
       d="m 210,140 -80,-10 40,80"
       id="path3023"
       inkscape:connector-curvature="0"
       transform="translate(0,842.36218)" />
    <path
       style="fill:none;stroke:#000000;stroke-width:1px;stroke-linecap:butt;stroke-linejoin:miter;stroke-opacity:1"
       d="M 40,210 80,130 0,140"
       id="path3025"
       inkscape:connector-curvature="0"
       transform="translate(0,842.36218)" />
    <path
       style="fill:none;stroke:#000000;stroke-width:1px;stroke-linecap:butt;stroke-linejoin:miter;stroke-opacity:1"
       d="M 80,80 0,70"
       id="path3027"
       inkscape:connector-curvature="0"
       transform="translate(0,842.36218)" />
    <g
       id="g3053">
      <path
         sodipodi:nodetypes="cccccccc"
         inkscape:connector-curvature="0"
         id="path3035"
         d="m 26.793708,896.35145 10.755669,-0.56176 C 40.719004,875.74247 31.656764,874.58298 26.66041,870.21274 l 4.932655,-4.48132 -11.093065,2.68459 0.933173,9.85633 3.398387,-5.24791 c 5.165719,4.86741 15.534346,9.45269 1.962148,23.32702"
         style="fill:none;stroke:#000000;stroke-width:1px;stroke-linecap:butt;stroke-linejoin:miter;stroke-opacity:1" />
      <path
         style="fill:none;stroke:#000000;stroke-width:1px;stroke-linecap:butt;stroke-linejoin:miter;stroke-opacity:1"
         d="m 183.20629,896.35145 -10.75567,-0.56176 c -3.16962,-20.04722 5.89262,-21.20671 10.88897,-25.57695 l -4.93265,-4.48132 11.09306,2.68459 -0.93317,9.85633 -3.39839,-5.24791 c -5.16572,4.86741 -15.53435,9.45269 -1.96215,23.32702"
         id="path3039"
         inkscape:connector-curvature="0"
         sodipodi:nodetypes="cccccccc" />
    </g>
    <g
       id="g3057"
       transform="matrix(1,0,0,-1,0,1893.5936)">
      <path
         style="fill:none;stroke:#000000;stroke-width:1px;stroke-linecap:butt;stroke-linejoin:miter;stroke-opacity:1"
         d="m 26.793708,896.35145 10.755669,-0.56176 C 40.719004,875.74247 31.656764,874.58298 26.66041,870.21274 l 4.932655,-4.48132 -11.093065,2.68459 0.933173,9.85633 3.398387,-5.24791 c 5.165719,4.86741 15.534346,9.45269 1.962148,23.32702"
         id="path3059"
         inkscape:connector-curvature="0"
         sodipodi:nodetypes="cccccccc" />
      <path
         sodipodi:nodetypes="cccccccc"
         inkscape:connector-curvature="0"
         id="path3061"
         d="m 183.20629,896.35145 -10.75567,-0.56176 c -3.16962,-20.04722 5.89262,-21.20671 10.88897,-25.57695 l -4.93265,-4.48132 11.09306,2.68459 -0.93317,9.85633 -3.39839,-5.24791 c -5.16572,4.86741 -15.53435,9.45269 -1.96215,23.32702"
         style="fill:none;stroke:#000000;stroke-width:1px;stroke-linecap:butt;stroke-linejoin:miter;stroke-opacity:1" />
    </g>
    <path
       style="fill:none;stroke:#000000;stroke-width:0.99999994px;stroke-linecap:butt;stroke-linejoin:miter;stroke-opacity:1"
       d="m 33.042801,953.74756 -0.466275,4.11197 c 0,0 10.898419,-1.02176 14.780922,-6.02777 3.882502,-5.00601 3.176814,-11.08422 -2.378004,-16.82169 -5.554816,-5.73747 -17.481228,-2.06583 -20.04983,1.9158 L 20.5,934.82316 l 1.678592,8.22394 8.206441,-0.18691 -3.170671,-3.36434 c 2.418612,-3.23823 10.584267,-5.84591 15.060687,-1.96253 4.476419,3.88339 5.486697,7.88054 1.911728,12.24245 -3.574968,4.36191 -11.143976,3.97179 -11.143976,3.97179 z"
       id="path3063"
       inkscape:connector-curvature="0"
       sodipodi:nodetypes="cczzccccczzc" />
    <path
       sodipodi:nodetypes="cczzccccczzc"
       inkscape:connector-curvature="0"
       id="path3065"
       d="m 176.9572,953.74756 0.46627,4.11197 c 0,0 -10.89841,-1.02176 -14.78092,-6.02777 -3.8825,-5.00601 -3.17681,-11.08422 2.37801,-16.82169 5.55481,-5.73747 17.48122,-2.06583 20.04983,1.9158 l 4.42961,-2.10271 -1.67859,8.22394 -8.20644,-0.18691 3.17067,-3.36434 c -2.41861,-3.23823 -10.58427,-5.84591 -15.06069,-1.96253 -4.47642,3.88339 -5.4867,7.88054 -1.91173,12.24245 3.57497,4.36191 11.14398,3.97179 11.14398,3.97179 z"
       style="fill:none;stroke:#000000;stroke-width:0.99999994px;stroke-linecap:butt;stroke-linejoin:miter;stroke-opacity:1" />
  </g>
  <g
     transform="translate(0,-842.36218)"
     id="g3882"
     inkscape:groupmode="layer"
     inkscape:label="faded"
     style="display:inline">
    <path
       inkscape:connector-curvature="0"
       id="path3884"
       d="m 95,902.86218 20,0 0,-30 10,0 -20,-20 -20,20 10,0 z"
       style="fill:none;stroke:#808080;stroke-width:1px;stroke-linecap:butt;stroke-linejoin:miter;stroke-opacity:1" />
    <path
       style="fill:none;stroke:#808080;stroke-width:1px;stroke-linecap:butt;stroke-linejoin:miter;stroke-opacity:1"
       d="m 115,991.86216 -20,0 0,30.00004 -10,0 20,20 20,-20 -10,0 z"
       id="path3886"
       inkscape:connector-curvature="0" />
    <path
       transform="translate(0,842.36218)"
       inkscape:connector-curvature="0"
       id="path3888"
       d="M 80,80 40,0"
       style="fill:none;stroke:#808080;stroke-width:1px;stroke-linecap:butt;stroke-linejoin:miter;stroke-opacity:1" />
    <path
       transform="translate(0,842.36218)"
       inkscape:connector-curvature="0"
       id="path3890"
       d="M 170,0 130,80 210,70"
       style="fill:none;stroke:#808080;stroke-width:1px;stroke-linecap:butt;stroke-linejoin:miter;stroke-opacity:1" />
    <path
       transform="translate(0,842.36218)"
       inkscape:connector-curvature="0"
       id="path3892"
       d="m 210,140 -80,-10 40,80"
       style="fill:none;stroke:#808080;stroke-width:1px;stroke-linecap:butt;stroke-linejoin:miter;stroke-opacity:1" />
    <path
       transform="translate(0,842.36218)"
       inkscape:connector-curvature="0"
       id="path3894"
       d="M 40,210 80,130 0,140"
       style="fill:none;stroke:#808080;stroke-width:1px;stroke-linecap:butt;stroke-linejoin:miter;stroke-opacity:1" />
    <path
       transform="translate(0,842.36218)"
       inkscape:connector-curvature="0"
       id="path3896"
       d="M 80,80 0,70"
       style="fill:none;stroke:#808080;stroke-width:1px;stroke-linecap:butt;stroke-linejoin:miter;stroke-opacity:1" />
    <g
       id="g3898"
       style="stroke:#808080">
      <path
         style="fill:none;stroke:#808080;stroke-width:1px;stroke-linecap:butt;stroke-linejoin:miter;stroke-opacity:1"
         d="m 26.793708,896.35145 10.755669,-0.56176 C 40.719004,875.74247 31.656764,874.58298 26.66041,870.21274 l 4.932655,-4.48132 -11.093065,2.68459 0.933173,9.85633 3.398387,-5.24791 c 5.165719,4.86741 15.534346,9.45269 1.962148,23.32702"
         id="path3900"
         inkscape:connector-curvature="0"
         sodipodi:nodetypes="cccccccc" />
      <path
         sodipodi:nodetypes="cccccccc"
         inkscape:connector-curvature="0"
         id="path3902"
         d="m 183.20629,896.35145 -10.75567,-0.56176 c -3.16962,-20.04722 5.89262,-21.20671 10.88897,-25.57695 l -4.93265,-4.48132 11.09306,2.68459 -0.93317,9.85633 -3.39839,-5.24791 c -5.16572,4.86741 -15.53435,9.45269 -1.96215,23.32702"
         style="fill:none;stroke:#808080;stroke-width:1px;stroke-linecap:butt;stroke-linejoin:miter;stroke-opacity:1" />
    </g>
    <g
       transform="matrix(1,0,0,-1,0,1893.5936)"
       id="g3904"
       style="stroke:#808080">
      <path
         sodipodi:nodetypes="cccccccc"
         inkscape:connector-curvature="0"
         id="path3906"
         d="m 26.793708,896.35145 10.755669,-0.56176 C 40.719004,875.74247 31.656764,874.58298 26.66041,870.21274 l 4.932655,-4.48132 -11.093065,2.68459 0.933173,9.85633 3.398387,-5.24791 c 5.165719,4.86741 15.534346,9.45269 1.962148,23.32702"
         style="fill:none;stroke:#808080;stroke-width:1px;stroke-linecap:butt;stroke-linejoin:miter;stroke-opacity:1" />
      <path
         style="fill:none;stroke:#808080;stroke-width:1px;stroke-linecap:butt;stroke-linejoin:miter;stroke-opacity:1"
         d="m 183.20629,896.35145 -10.75567,-0.56176 c -3.16962,-20.04722 5.89262,-21.20671 10.88897,-25.57695 l -4.93265,-4.48132 11.09306,2.68459 -0.93317,9.85633 -3.39839,-5.24791 c -5.16572,4.86741 -15.53435,9.45269 -1.96215,23.32702"
         id="path3908"
         inkscape:connector-curvature="0"
         sodipodi:nodetypes="cccccccc" />
    </g>
    <path
       sodipodi:nodetypes="cczzccccczzc"
       inkscape:connector-curvature="0"
       id="path3910"
       d="m 33.042801,953.74756 -0.466275,4.11197 c 0,0 10.898419,-1.02176 14.780922,-6.02777 3.882502,-5.00601 3.176814,-11.08422 -2.378004,-16.82169 -5.554816,-5.73747 -17.481228,-2.06583 -20.04983,1.9158 L 20.5,934.82316 l 1.678592,8.22394 8.206441,-0.18691 -3.170671,-3.36434 c 2.418612,-3.23823 10.584267,-5.84591 15.060687,-1.96253 4.476419,3.88339 5.486697,7.88054 1.911728,12.24245 -3.574968,4.36191 -11.143976,3.97179 -11.143976,3.97179 z"
       style="fill:none;stroke:#808080;stroke-width:0.99999994px;stroke-linecap:butt;stroke-linejoin:miter;stroke-opacity:1" />
    <path
       style="fill:none;stroke:#808080;stroke-width:0.99999994px;stroke-linecap:butt;stroke-linejoin:miter;stroke-opacity:1"
       d="m 176.9572,953.74756 0.46627,4.11197 c 0,0 -10.89841,-1.02176 -14.78092,-6.02777 -3.8825,-5.00601 -3.17681,-11.08422 2.37801,-16.82169 5.55481,-5.73747 17.48122,-2.06583 20.04983,1.9158 l 4.42961,-2.10271 -1.67859,8.22394 -8.20644,-0.18691 3.17067,-3.36434 c -2.41861,-3.23823 -10.58427,-5.84591 -15.06069,-1.96253 -4.47642,3.88339 -5.4867,7.88054 -1.91173,12.24245 3.57497,4.36191 11.14398,3.97179 11.14398,3.97179 z"
       id="path3912"
       inkscape:connector-curvature="0"
       sodipodi:nodetypes="cczzccccczzc" />
  </g>
  <g
     inkscape:groupmode="layer"
     id="layer11"
     inkscape:label="left-forward"
     style="display:none">
    <path
       style="fill:#ffff00;stroke:none"
       d="M 0,70 80,80 40,0 0,0 z"
       id="path4022"
       inkscape:connector-curvature="0" />
    <path
       style="fill:none;stroke:#000000;stroke-width:1px;stroke-linecap:butt;stroke-linejoin:miter;stroke-opacity:1"
       d="M 26.793708,53.98927 37.549377,53.42751 C 40.719004,33.38029 31.656764,32.2208 26.66041,27.85056 L 31.593065,23.36924 20.5,26.05383 l 0.933173,9.85633 3.398387,-5.24791 c 5.165719,4.86741 15.534346,9.45269 1.962148,23.32702"
       id="path4013"
       inkscape:connector-curvature="0"
       sodipodi:nodetypes="cccccccc" />
    <path
       style="fill:none;stroke:#000000;stroke-width:1px;stroke-linecap:butt;stroke-linejoin:miter;stroke-opacity:1"
       d="M 0,70 80,80 40,0"
       id="path4024"
       inkscape:connector-curvature="0" />
  </g>
  <g
     inkscape:groupmode="layer"
     id="layer10"
     inkscape:label="left-stop"
     style="display:none">
    <path
       style="fill:#ffff00;stroke:none"
       d="M 0,140 80,130 80,80 0,70 0,140"
       id="path4004"
       inkscape:connector-curvature="0" />
    <path
       transform="translate(0,-842.36218)"
       style="fill:none;stroke:#000000;stroke-width:0.99999994px;stroke-linecap:butt;stroke-linejoin:miter;stroke-opacity:1;display:inline"
       d="m 33.042801,953.74756 -0.466275,4.11197 c 0,0 10.898419,-1.02176 14.780922,-6.02777 3.882502,-5.00601 3.176814,-11.08422 -2.378004,-16.82169 -5.554816,-5.73747 -17.481228,-2.06583 -20.04983,1.9158 L 20.5,934.82316 l 1.678592,8.22394 8.206441,-0.18691 -3.170671,-3.36434 c 2.418612,-3.23823 10.584267,-5.84591 15.060687,-1.96253 4.476419,3.88339 5.486697,7.88054 1.911728,12.24245 -3.574968,4.36191 -11.143976,3.97179 -11.143976,3.97179 z"
       id="path4001"
       inkscape:connector-curvature="0"
       sodipodi:nodetypes="cczzccccczzc" />
    <path
       style="fill:none;stroke:#000000;stroke-width:1px;stroke-linecap:butt;stroke-linejoin:miter;stroke-opacity:1"
       d="M 0,140 80,130"
       id="path4006"
       inkscape:connector-curvature="0" />
    <path
       style="fill:none;stroke:#000000;stroke-width:1px;stroke-linecap:butt;stroke-linejoin:miter;stroke-opacity:1"
       d="M 0,70 80,80"
       id="path4008"
       inkscape:connector-curvature="0" />
  </g>
  <g
     inkscape:groupmode="layer"
     id="layer9"
     inkscape:label="left-reverse"
     style="display:none">
    <path
       style="fill:#ffff00;stroke:none"
       d="M 40,210 80,130 0,140 0,210 z"
       id="path3996"
       inkscape:connector-curvature="0" />
    <path
       sodipodi:nodetypes="cccccccc"
       inkscape:connector-curvature="0"
       id="path3987"
       d="m 26.793708,154.87995 10.755669,0.56176 c 3.169627,20.04722 -5.892613,21.20671 -10.888967,25.57695 l 4.932655,4.48132 L 20.5,182.81539 l 0.933173,-9.85633 3.398387,5.24791 c 5.165719,-4.86741 15.534346,-9.45269 1.962148,-23.32702"
       style="fill:none;stroke:#000000;stroke-width:1px;stroke-linecap:butt;stroke-linejoin:miter;stroke-opacity:1" />
    <path
       style="fill:none;stroke:#000000;stroke-width:1px;stroke-linecap:butt;stroke-linejoin:miter;stroke-opacity:1"
       d="M 40,210 80,130 0,140"
       id="path3998"
       inkscape:connector-curvature="0" />
  </g>
  <g
     inkscape:groupmode="layer"
     id="layer8"
     inkscape:label="centre-reverse"
     style="display:none">
    <path
       style="fill:#ffff00;stroke:none"
       d="m 40,210 40,-80 50,0 40,80 z"
       id="path3959"
       inkscape:connector-curvature="0" />
    <path
       transform="translate(0,-842.36218)"
       inkscape:connector-curvature="0"
       id="path3961"
       d="m 115,991.86216 -20,0 0,30.00004 -10,0 20,20 20,-20 -10,0 z"
       style="fill:none;stroke:#000000;stroke-width:1px;stroke-linecap:butt;stroke-linejoin:miter;stroke-opacity:1;display:inline" />
    <path
       style="fill:none;stroke:#000000;stroke-width:1px;stroke-linecap:butt;stroke-linejoin:miter;stroke-opacity:1"
       d="M 40,210 80,130"
       id="path3964"
       inkscape:connector-curvature="0" />
    <path
       style="fill:none;stroke:#000000;stroke-width:1px;stroke-linecap:butt;stroke-linejoin:miter;stroke-opacity:1"
       d="m 130,130 40,80"
       id="path3966"
       inkscape:connector-curvature="0" />
  </g>
  <g
     inkscape:groupmode="layer"
     id="layer7"
     inkscape:label="right-reverse"
     style="display:none">
    <path
       style="fill:#ffff00;stroke:none"
       d="m 170,210 -40,-80 80,10 0,70 z"
       id="path3956"
       inkscape:connector-curvature="0" />
    <path
       style="fill:none;stroke:#000000;stroke-width:1px;stroke-linecap:butt;stroke-linejoin:miter;stroke-opacity:1"
       d="m 183.20629,154.87995 -10.75567,0.56176 c -3.16962,20.04722 5.89262,21.20671 10.88897,25.57695 l -4.93265,4.48132 11.09306,-2.68459 -0.93317,-9.85633 -3.39839,5.24791 c -5.16572,-4.86741 -15.53435,-9.45269 -1.96215,-23.32702"
       id="path3946"
       inkscape:connector-curvature="0"
       sodipodi:nodetypes="cccccccc" />
    <path
       style="fill:none;stroke:#000000;stroke-width:1px;stroke-linecap:butt;stroke-linejoin:miter;stroke-opacity:1"
       d="m 130,130 40,80"
       id="path3968"
       inkscape:connector-curvature="0" />
    <path
       style="fill:none;stroke:#000000;stroke-width:1px;stroke-linecap:butt;stroke-linejoin:miter;stroke-opacity:1"
       d="M 210,140 130,130"
       id="path3970"
       inkscape:connector-curvature="0" />
  </g>
  <g
     inkscape:groupmode="layer"
     id="layer6"
     inkscape:label="right-stop"
     style="display:none">
    <path
       style="fill:#ffff00;stroke:none"
       d="m 130,130 0,-50 80,-10 0,70 z"
       id="path3939"
       inkscape:connector-curvature="0" />
    <path
       transform="translate(0,-842.36218)"
       sodipodi:nodetypes="cczzccccczzc"
       inkscape:connector-curvature="0"
       id="path3936"
       d="m 176.9572,953.74756 0.46627,4.11197 c 0,0 -10.89841,-1.02176 -14.78092,-6.02777 -3.8825,-5.00601 -3.17681,-11.08422 2.37801,-16.82169 5.55481,-5.73747 17.48122,-2.06583 20.04983,1.9158 l 4.42961,-2.10271 -1.67859,8.22394 -8.20644,-0.18691 3.17067,-3.36434 c -2.41861,-3.23823 -10.58427,-5.84591 -15.06069,-1.96253 -4.47642,3.88339 -5.4867,7.88054 -1.91173,12.24245 3.57497,4.36191 11.14398,3.97179 11.14398,3.97179 z"
       style="fill:none;stroke:#000000;stroke-width:0.99999994px;stroke-linecap:butt;stroke-linejoin:miter;stroke-opacity:1;display:inline" />
    <path
       style="fill:none;stroke:#000000;stroke-width:1px;stroke-linecap:butt;stroke-linejoin:miter;stroke-opacity:1"
       d="M 130,80 210,70"
       id="path3972"
       inkscape:connector-curvature="0" />
    <path
       style="fill:none;stroke:#000000;stroke-width:1px;stroke-linecap:butt;stroke-linejoin:miter;stroke-opacity:1"
       d="m 130,130 80,10"
       id="path3974"
       inkscape:connector-curvature="0" />
  </g>
  <g
     inkscape:groupmode="layer"
     id="layer5"
     inkscape:label="right-forward"
     style="display:none">
    <path
       style="fill:#ffff00;stroke:none;display:inline"
       d="m 130,80 40,-80 40,0 0,70 -80,10 z"
       id="path3920"
       inkscape:connector-curvature="0" />
    <path
       sodipodi:nodetypes="cccccccc"
       inkscape:connector-curvature="0"
       id="path3928"
       d="M 183.20629,53.98927 172.45062,53.42751 C 169.281,33.38029 178.34324,32.2208 183.33959,27.85056 l -4.93265,-4.48132 11.09306,2.68459 -0.93317,9.85633 -3.39839,-5.24791 c -5.16572,4.86741 -15.53435,9.45269 -1.96215,23.32702"
       style="fill:none;stroke:#000000;stroke-width:1px;stroke-linecap:butt;stroke-linejoin:miter;stroke-opacity:1" />
    <path
       style="fill:none;stroke:#000000;stroke-width:1px;stroke-linecap:butt;stroke-linejoin:miter;stroke-opacity:1"
       d="M 130,80 210,70"
       id="path3976"
       inkscape:connector-curvature="0" />
    <path
       style="fill:none;stroke:#000000;stroke-width:1px;stroke-linecap:butt;stroke-linejoin:miter;stroke-opacity:1"
       d="M 170,0 130,80"
       id="path3978"
       inkscape:connector-curvature="0" />
  </g>
  <g
     inkscape:groupmode="layer"
     id="layer2"
     inkscape:label="centre-forward"
     style="display:inline">
    <path
       style="fill:#ffff00;stroke:none"
       d="M 40.153564,-0.11172965 79.802051,79.94286 129.04699,80.195398 169.95817,-0.36426779 z"
       id="path3842"
       inkscape:connector-curvature="0" />
    <path
       transform="translate(0,-842.36218)"
       inkscape:connector-curvature="0"
       id="path3846"
       d="m 95,902.86218 20,0 0,-30 10,0 -20,-20 -20,20 10,0 z"
       style="fill:none;stroke:#000000;stroke-width:1px;stroke-linecap:butt;stroke-linejoin:miter;stroke-opacity:1;display:inline" />
    <path
       style="fill:none;stroke:#000000;stroke-width:1px;stroke-linecap:butt;stroke-linejoin:miter;stroke-opacity:1"
       d="M 40,0 80,80"
       id="path3980"
       inkscape:connector-curvature="0" />
    <path
       style="fill:none;stroke:#000000;stroke-width:1px;stroke-linecap:butt;stroke-linejoin:miter;stroke-opacity:1"
       d="M 130,80 170,0"
       id="path3982"
       inkscape:connector-curvature="0" />
  </g>
  <g
     inkscape:groupmode="layer"
     id="layer3"
     inkscape:label="dot"
     style="display:inline">
    <path
       sodipodi:type="arc"
       style="color:#000000;fill:#ffffff;stroke:#000000;stroke-width:0.8564679;stroke-linecap:butt;stroke-linejoin:miter;stroke-miterlimit:4;stroke-opacity:1;stroke-dasharray:none;stroke-dashoffset:0;marker:none;visibility:visible;display:inline;overflow:visible;enable-background:accumulate"
       id="path3031"
       sodipodi:cx="90"
       sodipodi:cy="90"
       sodipodi:rx="30"
       sodipodi:ry="30"
       d="m 120,90 a 30,30 0 1 1 -60,0 30,30 0 1 1 60,0 z"
       transform="matrix(1.1666667,0,0,1.1666667,-3e-6,0)" />
  </g>
</svg>
