<?xml version="1.0" encoding="UTF-8" standalone="no"?>
<!-- Created with Inkscape (http://www.inkscape.org/) -->

<svg
   xmlns:dc="http://purl.org/dc/elements/1.1/"
   xmlns:cc="http://creativecommons.org/ns#"
   xmlns:rdf="http://www.w3.org/1999/02/22-rdf-syntax-ns#"
   xmlns:svg="http://www.w3.org/2000/svg"
   xmlns="http://www.w3.org/2000/svg"
   xmlns:sodipodi="http://sodipodi.sourceforge.net/DTD/sodipodi-0.dtd"
   xmlns:inkscape="http://www.inkscape.org/namespaces/inkscape"
   width="210"
   height="210"
   id="svg2"
   version="1.1"
   inkscape:version="0.48.4 r9939"
   sodipodi:docname="New document 1">
  <defs
     id="defs4" />
  <sodipodi:namedview
     id="base"
     pagecolor="#ffffff"
     bordercolor="#666666"
     borderopacity="1.0"
     inkscape:pageopacity="0.0"
     inkscape:pageshadow="2"
     inkscape:zoom="2.8"
     inkscape:cx="146.34303"
     inkscape:cy="100.0572"
     inkscape:document-units="px"
     inkscape:current-layer="layer1"
     showgrid="true"
     inkscape:snap-bbox="true"
     showguides="true"
     inkscape:guide-bbox="true"
     inkscape:snap-nodes="false"
     inkscape:object-nodes="true"
     inkscape:window-width="1680"
     inkscape:window-height="966"
     inkscape:window-x="1672"
     inkscape:window-y="-8"
     inkscape:window-maximized="1">
    <inkscape:grid
       type="xygrid"
       id="grid2985"
       empspacing="5"
       visible="true"
       enabled="true"
       snapvisiblegridlinesonly="true"
       spacingx="2px"
       spacingy="2px" />
    <sodipodi:guide
       orientation="0,1"
       position="130,130"
       id="guide3005" />
    <sodipodi:guide
       orientation="0,1"
       position="130,80"
       id="guide3007" />
    <sodipodi:guide
       orientation="1,0"
       position="130,100"
       id="guide3011" />
    <sodipodi:guide
       orientation="1,0"
       position="80,110"
       id="guide3013" />
    <sodipodi:guide
       orientation="0,1"
       position="45.456865,187.13076"
       id="guide3037" />
    <sodipodi:guide
       orientation="1,0"
       position="20,168"
       id="guide3043" />
    <sodipodi:guide
       orientation="1,0"
       position="190,158"
       id="guide3045" />
    <sodipodi:guide
       orientation="0,1"
       position="198,24"
       id="guide3049" />
  </sodipodi:namedview>
  <metadata
     id="metadata7">
    <rdf:RDF>
      <cc:Work
         rdf:about="">
        <dc:format>image/svg+xml</dc:format>
        <dc:type
           rdf:resource="http://purl.org/dc/dcmitype/StillImage" />
        <dc:title></dc:title>
      </cc:Work>
    </rdf:RDF>
  </metadata>
  <g
     inkscape:label="Layer 1"
     inkscape:groupmode="layer"
     id="layer1"
     transform="translate(0,-842.36218)">
    <path
       style="fill:none;stroke:#000000;stroke-width:1px;stroke-linecap:butt;stroke-linejoin:miter;stroke-opacity:1"
       d="m 95,902.86218 20,0 0,-30 10,0 -20,-20 -20,20 10,0 z"
       id="path3015"
       inkscape:connector-curvature="0" />
    <path
       inkscape:connector-curvature="0"
       id="path3017"
       d="m 115,991.86216 -20,0 0,30.00004 -10,0 20,20 20,-20 -10,0 z"
       style="fill:none;stroke:#000000;stroke-width:1px;stroke-linecap:butt;stroke-linejoin:miter;stroke-opacity:1" />
    <path
       style="fill:none;stroke:#000000;stroke-width:1px;stroke-linecap:butt;stroke-linejoin:miter;stroke-opacity:1"
       d="M 80,80 40,0"
       id="path3019"
       inkscape:connector-curvature="0"
       transform="translate(0,842.36218)" />
    <path
       style="fill:none;stroke:#000000;stroke-width:1px;stroke-linecap:butt;stroke-linejoin:miter;stroke-opacity:1"
       d="M 170,0 130,80 210,70"
       id="path3021"
       inkscape:connector-curvature="0"
       transform="translate(0,842.36218)" />
    <path
       style="fill:none;stroke:#000000;stroke-width:1px;stroke-linecap:butt;stroke-linejoin:miter;stroke-opacity:1"
       d="m 210,140 -80,-10 40,80"
       id="path3023"
       inkscape:connector-curvature="0"
       transform="translate(0,842.36218)" />
    <path
       style="fill:none;stroke:#000000;stroke-width:1px;stroke-linecap:butt;stroke-linejoin:miter;stroke-opacity:1"
       d="M 40,210 80,130 0,140"
       id="path3025"
       inkscape:connector-curvature="0"
       transform="translate(0,842.36218)" />
    <path
       style="fill:none;stroke:#000000;stroke-width:1px;stroke-linecap:butt;stroke-linejoin:miter;stroke-opacity:1"
       d="M 80,80 0,70"
       id="path3027"
       inkscape:connector-curvature="0"
       transform="translate(0,842.36218)" />
    <path
       sodipodi:type="arc"
       style="color:#000000;fill:none;stroke:#000000;stroke-width:0.8564679;stroke-linecap:butt;stroke-linejoin:miter;stroke-miterlimit:4;stroke-opacity:1;stroke-dasharray:none;stroke-dashoffset:0;marker:none;visibility:visible;display:inline;overflow:visible;enable-background:accumulate"
       id="path3031"
       sodipodi:cx="90"
       sodipodi:cy="90"
       sodipodi:rx="30"
       sodipodi:ry="30"
       d="m 120,90 a 30,30 0 1 1 -60,0 30,30 0 1 1 60,0 z"
       transform="matrix(1.1666667,0,0,1.1666667,-3e-6,842.36218)" />
    <g
       id="g3053">
      <path
         sodipodi:nodetypes="cccccccc"
         inkscape:connector-curvature="0"
         id="path3035"
         d="m 26.793708,896.35145 10.755669,-0.56176 C 40.719004,875.74247 31.656764,874.58298 26.66041,870.21274 l 4.932655,-4.48132 -11.093065,2.68459 0.933173,9.85633 3.398387,-5.24791 c 5.165719,4.86741 15.534346,9.45269 1.962148,23.32702"
         style="fill:none;stroke:#000000;stroke-width:1px;stroke-linecap:butt;stroke-linejoin:miter;stroke-opacity:1" />
      <path
         style="fill:none;stroke:#000000;stroke-width:1px;stroke-linecap:butt;stroke-linejoin:miter;stroke-opacity:1"
         d="m 183.20629,896.35145 -10.75567,-0.56176 c -3.16962,-20.04722 5.89262,-21.20671 10.88897,-25.57695 l -4.93265,-4.48132 11.09306,2.68459 -0.93317,9.85633 -3.39839,-5.24791 c -5.16572,4.86741 -15.53435,9.45269 -1.96215,23.32702"
         id="path3039"
         inkscape:connector-curvature="0"
         sodipodi:nodetypes="cccccccc" />
    </g>
    <g
       id="g3057"
       transform="matrix(1,0,0,-1,0,1893.5936)">
      <path
         style="fill:none;stroke:#000000;stroke-width:1px;stroke-linecap:butt;stroke-linejoin:miter;stroke-opacity:1"
         d="m 26.793708,896.35145 10.755669,-0.56176 C 40.719004,875.74247 31.656764,874.58298 26.66041,870.21274 l 4.932655,-4.48132 -11.093065,2.68459 0.933173,9.85633 3.398387,-5.24791 c 5.165719,4.86741 15.534346,9.45269 1.962148,23.32702"
         id="path3059"
         inkscape:connector-curvature="0"
         sodipodi:nodetypes="cccccccc" />
      <path
         sodipodi:nodetypes="cccccccc"
         inkscape:connector-curvature="0"
         id="path3061"
         d="m 183.20629,896.35145 -10.75567,-0.56176 c -3.16962,-20.04722 5.89262,-21.20671 10.88897,-25.57695 l -4.93265,-4.48132 11.09306,2.68459 -0.93317,9.85633 -3.39839,-5.24791 c -5.16572,4.86741 -15.53435,9.45269 -1.96215,23.32702"
         style="fill:none;stroke:#000000;stroke-width:1px;stroke-linecap:butt;stroke-linejoin:miter;stroke-opacity:1" />
    </g>
    <path
       style="fill:none;stroke:#000000;stroke-width:0.99999994px;stroke-linecap:butt;stroke-linejoin:miter;stroke-opacity:1"
       d="m 33.042801,953.74756 -0.466275,4.11197 c 0,0 10.898419,-1.02176 14.780922,-6.02777 3.882502,-5.00601 3.176814,-11.08422 -2.378004,-16.82169 -5.554816,-5.73747 -17.481228,-2.06583 -20.04983,1.9158 L 20.5,934.82316 l 1.678592,8.22394 8.206441,-0.18691 -3.170671,-3.36434 c 2.418612,-3.23823 10.584267,-5.84591 15.060687,-1.96253 4.476419,3.88339 5.486697,7.88054 1.911728,12.24245 -3.574968,4.36191 -11.143976,3.97179 -11.143976,3.97179 z"
       id="path3063"
       inkscape:connector-curvature="0"
       sodipodi:nodetypes="cczzccccczzc" />
    <path
       sodipodi:nodetypes="cczzccccczzc"
       inkscape:connector-curvature="0"
       id="path3065"
       d="m 176.9572,953.74756 0.46627,4.11197 c 0,0 -10.89841,-1.02176 -14.78092,-6.02777 -3.8825,-5.00601 -3.17681,-11.08422 2.37801,-16.82169 5.55481,-5.73747 17.48122,-2.06583 20.04983,1.9158 l 4.42961,-2.10271 -1.67859,8.22394 -8.20644,-0.18691 3.17067,-3.36434 c -2.41861,-3.23823 -10.58427,-5.84591 -15.06069,-1.96253 -4.47642,3.88339 -5.4867,7.88054 -1.91173,12.24245 3.57497,4.36191 11.14398,3.97179 11.14398,3.97179 z"
       style="fill:none;stroke:#000000;stroke-width:0.99999994px;stroke-linecap:butt;stroke-linejoin:miter;stroke-opacity:1" />
  </g>
</svg>
